PathFileType	4	(X/Y/Z)	D:\TRACE\v60_Jaco2_6-2-23\BothDRS_Motion1_2-v60.trc
DataRate	CameraRate	NumFrames	NumMarkers	Units	OrigDataRate	OrigDataStartFrame	OrigNumFrames
100.00	100.00	      17	9	mm	100.00	6099	      6970
Frame#	Time	front left toe			Front right toe			aft left toe			aft right toe			Arm			FL body			FR body			AL Body			AR Body			
		X1	Y1	Z1	X2	Y2	Z2	X3	Y3	Z3	X4	Y4	Z4	X5	Y5	Z5	X6	Y6	Z6	X7	Y7	Z7	X8	Y8	Z8	X9	Y9	Z9	

6099	60.980	-185.27550	83.72827	-284.67917	196.41022	5.59191	-327.09540	-131.63667	21.70875	328.90283	234.48715	104.70238	306.16794	41.89503	1074.75623	-652.14575	-86.92013	563.13379	-430.54480	72.12605	560.55768	-445.73856	0.71394	585.81775	510.27768	154.66130	577.00293	496.63861	
6100	60.990	-186.11783	95.22703	-284.56604	195.90829	5.82114	-326.85107	-132.33925	21.11655	328.87134	235.93477	116.55134	306.16141	40.89277	1074.76611	-652.13019	-87.52925	562.79199	-429.81738	71.14400	560.57855	-444.87726	-0.51515	585.14935	511.07431	154.53772	576.43378	497.09073	
6101	61.000	-186.36833	105.92319	-284.47787	194.68034	5.73261	-326.87927	-133.53407	21.22508	329.08670	236.19193	127.40395	306.13959	39.95939	1074.86487	-651.90808	-89.22667	563.22266	-429.81042	71.18643	560.73889	-444.71460	-1.45537	584.64709	511.69882	153.27037	575.70911	496.99542	
6102	61.010	-186.76009	115.30012	-283.89642	194.02229	5.96956	-326.60623	-134.29385	21.21500	329.07578	235.94560	137.38126	306.70413	38.60535	1075.10425	-651.44934	-90.07963	563.22369	-429.00323	69.55738	560.50818	-443.47299	-2.39832	584.56720	512.26343	152.29108	575.83063	498.43195	
6103	61.020	-187.14851	123.29948	-282.89288	193.22705	6.41251	-326.37347	-135.01274	20.81904	329.02155	235.18381	144.18352	307.25793	37.86608	1075.34717	-651.04572	-90.52245	562.80908	-428.13449	69.52499	560.52728	-443.35651	-3.38945	584.51849	513.24957	151.00879	575.42749	498.41272	
6104	61.030	-187.94327	129.89812	-282.03534	192.36807	6.70501	-326.17184	-136.07977	20.49095	329.37524	235.20514	149.42943	308.64758	36.61958	1075.31604	-650.47113	-91.16325	562.46442	-427.25287	68.23856	560.31525	-441.79843	-5.10927	584.06409	513.82996	149.92926	575.72339	500.31842	
6105	61.040	-189.04385	133.67374	-280.78378	191.20909	6.71458	-326.17706	-136.94704	20.33448	329.65991	235.60118	152.71942	309.89520	35.38413	1075.19568	-649.92743	-91.79119	562.37769	-426.47495	67.69431	560.36261	-440.97641	-6.07384	583.65131	515.00909	148.42538	575.49756	501.31680	
6106	61.050	-190.91954	134.73807	-278.81470	190.82422	7.01299	-325.73343	-137.38731	19.87761	329.84540	236.63322	153.56357	311.58911	34.04106	1075.08411	-648.89130	-92.01633	562.15503	-425.40024	67.22092	560.38458	-439.87830	-7.45870	583.58533	516.05634	147.25691	574.79639	501.45340	
6107	61.060	-191.74007	132.76973	-276.64740	190.02449	7.36460	-325.48145	-138.41722	19.75475	329.96732	236.57462	151.18788	313.25717	32.87798	1075.08752	-648.10791	-93.32671	562.43335	-424.98273	66.42851	560.47552	-438.77597	-8.64814	583.20325	516.67389	145.83650	575.06921	503.41794	
6108	61.070	-192.13228	128.70824	-274.72195	189.35385	7.60188	-325.45975	-139.50021	19.74533	330.00552	237.01700	147.29039	315.33566	32.01233	1075.34021	-647.30560	-94.08049	562.76617	-423.95947	65.72531	560.67230	-438.19647	-9.94272	583.14496	517.90985	150.40842	576.81836	506.60532	
6109	61.080	-191.91463	123.45039	-273.06436	188.27498	7.63795	-325.30579	-140.14600	19.32335	330.02359	236.31030	142.15099	317.27206	30.99714	1075.39722	-646.21472	-94.42017	562.46405	-422.88559	64.99370	560.79730	-436.86856	-11.77277	582.78778	518.82343	146.99451	577.39258	509.31549	
6110	61.090	-191.78851	116.86387	-271.52271	187.56816	8.04622	-324.92523	-140.73277	18.91825	330.06711	235.62932	136.34496	319.17618	30.41669	1075.71851	-644.98492	-95.34279	562.48370	-421.89099	64.37535	560.79413	-435.57034	-12.90311	582.50238	519.68646	145.34607	577.00934	510.29904	
6111	61.100	-191.81657	109.38110	-270.28473	187.06618	8.39562	-324.62027	-142.16495	18.77675	330.54678	234.77798	129.13251	321.12256	29.57854	1076.17603	-643.28821	-95.89830	562.41827	-420.79929	63.59210	561.18268	-434.77759	-14.68093	581.96875	520.77740	143.70522	576.70520	511.07693	
6112	61.110	-192.45938	101.68964	-269.48325	186.24840	8.54109	-324.58264	-142.49554	18.50176	330.71429	233.99597	120.77417	322.58206	28.37143	1076.44995	-641.99512	-96.21347	562.58679	-419.80344	63.73691	561.69043	-433.99597	-16.04088	581.44299	521.99524	142.41467	576.14038	512.68689	
6113	61.120	-192.96805	93.01910	-268.67484	185.33305	8.73818	-324.41763	-143.33873	18.13415	330.95480	234.40962	111.22263	324.18173	27.18440	1077.22827	-640.65979	-96.87360	562.87000	-419.02698	62.19154	561.91223	-432.64090	-17.25141	581.04999	523.56360	140.74657	575.71863	513.51471	
6114	61.130	-193.79337	84.05629	-268.33020	184.46011	8.97703	-324.11584	-144.48622	18.17970	330.85968	232.89941	100.82629	325.55322	25.68862	1077.87646	-639.46625	-97.79842	563.15607	-418.36557	61.97418	562.37164	-432.16028	-18.68064	580.55011	523.87024	140.90506	575.12964	514.44757	
6115	61.140	-193.64644	74.01173	-267.93637	184.17665	9.42957	-323.78360	-145.16217	17.32558	331.06299	231.67050	90.08665	326.87933	24.63180	1078.40674	-638.08636	-98.54165	563.26837	-417.65915	61.09104	562.41541	-430.74161	-20.29442	579.88580	524.67615	137.95108	574.84357	515.42554	
